<svg width="33" height="32" viewBox="0 0 33 32" fill="none" xmlns="http://www.w3.org/2000/svg">
<path d="M29.4296 11.1861C28.7395 9.58861 27.7356 8.13664 26.4739 6.91106C25.2158 5.68337 23.7215 4.70727 22.0756 4.0382C20.3896 3.34945 18.578 2.99641 16.7486 3.00003H16.687C14.8263 3.00898 13.027 3.36697 11.3323 4.07101C9.70056 4.74696 8.22023 5.72478 6.97405 6.94985C5.7245 8.17266 4.7321 9.61955 4.05215 11.2099C3.34634 12.8637 2.9887 14.6378 3.00027 16.4276C3.0095 18.498 3.52006 20.5534 4.47352 22.3911V26.9257C4.47352 27.6834 5.10711 28.298 5.88526 28.298H10.5541C12.4576 29.2296 14.5581 29.7198 16.6901 29.7299H16.7547C18.594 29.7299 20.3748 29.3839 22.0541 28.7067C23.6916 28.0456 25.1804 27.0809 26.437 25.8666C27.7041 24.6465 28.7007 23.2205 29.3988 21.6304C30.1216 19.9836 30.4907 18.2325 30.4999 16.4246C30.5061 14.6078 30.1431 12.8447 29.4296 11.1861ZM10.6095 17.7969C9.79752 17.7969 9.13625 17.1555 9.13625 16.365C9.13625 15.5744 9.79752 14.933 10.6095 14.933C11.4215 14.933 12.0828 15.5744 12.0828 16.365C12.0828 17.1555 11.4246 17.7969 10.6095 17.7969ZM16.7486 17.7969C15.9366 17.7969 15.2753 17.1555 15.2753 16.365C15.2753 15.5744 15.9366 14.933 16.7486 14.933C17.5605 14.933 18.2218 15.5744 18.2218 16.365C18.2218 17.1555 17.5605 17.7969 16.7486 17.7969ZM22.8876 17.7969C22.0756 17.7969 21.4144 17.1555 21.4144 16.365C21.4144 15.5744 22.0756 14.933 22.8876 14.933C23.6996 14.933 24.3609 15.5744 24.3609 16.365C24.3609 17.1555 23.6996 17.7969 22.8876 17.7969Z" fill="#1B1464"/>
</svg>
