<svg width="230" height="260" viewBox="0 0 230 260" fill="none" xmlns="http://www.w3.org/2000/svg">
<g clip-path="url(#clip0_5120_125)">
<path d="M213.91 109.08L205.48 97.1199L193.35 86.1899C188.2 81.03 179.71 80.5999 175.84 73.6999C188.45 64.0799 195.23 51.0999 204.91 39.5299L205.87 33.4899C198.27 16.7299 180.43 10.3299 164.36 5.23994C144.66 -0.0800555 126.64 8.05995 115.46 24.4399C111.58 28.4799 112.4 35.7899 108.01 38.5999C103.38 34.7299 97.6101 29.5599 90.2501 30.9799C70.4201 38.9799 93.9501 52.3699 92.1401 64.3899C86.3701 70.1699 76.8101 66.5999 69.4401 69.2699C40.5401 76.8199 13.6901 102.64 6.08005 131.33C-0.0199475 166.77 3.34005 205.71 26.1201 233.02C43.2001 253.91 74.3101 261.03 100.83 253.36C121.78 257.51 145.85 260.62 165.77 251.35C167.08 250.96 168.34 250.4 169.57 249.72C181.68 243.06 192.31 234 200.59 222.93M188.6 39.2599C187.06 44.6199 184.37 49.9299 179.29 53.9299C172.11 52.9099 168.36 43.6399 163.16 38.5099C168.92 33.3499 180.22 36.3799 187.46 37.3799L188.59 39.2599H188.6ZM161.71 66.3099C147.05 67.9399 132.68 64.1399 123.1 52.1299L123.81 49.1399C132.55 44.1599 141.36 38.5599 151.08 37.8699L169.33 59.4299C171.5 64.4199 164.8 65.2599 161.71 66.3099ZM143.64 17.4699C157.32 11.5199 172.74 18.4199 184.5 25.0899C173.38 28.1299 157.81 25.4999 144.98 27.8399C141.41 25.8399 142.32 20.4199 143.64 17.4699ZM132.49 22.3499C134.93 22.4499 135.95 25.5499 135.23 27.9099C134.92 33.3499 128.84 34.2599 125.08 36.4899L122.69 35.7399C122.42 30.2799 127.52 25.0899 132.48 22.3499H132.49ZM115.76 63.2499C120.56 64.1299 124.65 67.9699 127.51 70.5299C124.38 73.4099 119.49 73.1499 115.31 72.3099C114.83 69.2399 113.26 65.5099 115.76 63.2499ZM92.5401 44.4299C95.2001 39.7499 100.99 45.5099 101.37 49.1499C102.51 62.5299 109.77 73.2599 108.4 87.6899L106.59 87.6199C103.13 72.88 101.54 57.6499 92.5401 44.4299ZM158.33 242.47C142.89 248.33 122.94 247.27 106.18 243.34C85.41 246.45 58.0601 248.02 41.2401 233.2C9.51006 204.23 8.52005 154.49 23.8601 117.12C35.8701 95.3699 59.5501 83.8599 81.5801 79.5799C87.0401 79.2799 93.0601 80.2099 94.6001 85.1399C93.7701 89.3499 85.7401 92.5499 89.7001 98.1999C94.1701 105.11 102.6 106.16 109.9 104.75C118.99 105.2 130.37 107.64 136.31 98.8899C136.86 87.9899 117.51 99.09 121.71 87.8199C143.38 79.8699 172.34 82.0199 189.02 98.6699C195.128 103.729 199.993 109.486 203.756 115.768C212.511 130.386 215.302 147.851 213.91 166C208.51 198.43 189.46 227.16 158.33 242.46V242.47Z" fill="#221714"/>
<path fill-rule="evenodd" clip-rule="evenodd" d="M213.91 109.08L205.48 97.1199L193.35 86.1899C188.2 81.03 179.71 80.5999 175.84 73.6999C188.45 64.0799 195.23 51.0999 204.91 39.5299L205.87 33.4899C198.27 16.7299 180.43 10.3299 164.36 5.23994C144.66 -0.0800555 126.64 8.05995 115.46 24.4399C111.58 28.4799 112.4 35.7899 108.01 38.5999C103.38 34.7299 97.6101 29.5599 90.2501 30.9799C70.4201 38.9799 93.9501 52.3699 92.1401 64.3899C86.3701 70.1699 76.8101 66.5999 69.4401 69.2699C40.5401 76.8199 13.6901 102.64 6.08005 131.33C-0.0199475 166.77 3.34005 205.71 26.1201 233.02C43.2001 253.91 74.3101 261.03 100.83 253.36C121.78 257.51 145.85 260.62 165.77 251.35C167.08 250.96 168.34 250.4 169.57 249.72C181.68 243.06 192.31 234 200.59 222.93C222.662 192.251 236.062 145.596 214.469 109.987C214.285 109.684 214.099 109.381 213.91 109.08L203.756 115.768C212.511 130.386 215.302 147.851 213.91 166C208.51 198.43 189.46 227.16 158.33 242.46V242.47C142.89 248.33 122.94 247.27 106.18 243.34C85.41 246.45 58.0601 248.02 41.2401 233.2C9.51006 204.23 8.52005 154.49 23.8601 117.12C35.8701 95.3699 59.5501 83.8599 81.5801 79.5799C87.0401 79.2799 93.0601 80.2099 94.6001 85.1399C93.7701 89.3499 85.7401 92.5499 89.7001 98.1999C94.1701 105.11 102.6 106.16 109.9 104.75C118.99 105.2 130.37 107.64 136.31 98.8899C136.86 87.9899 117.51 99.09 121.71 87.8199C143.38 79.8699 172.34 82.0199 189.02 98.6699C195.128 103.729 199.993 109.486 203.756 115.768L213.91 109.08ZM179.29 53.9299C184.37 49.9299 187.06 44.6199 188.6 39.2599H188.59L187.46 37.3799C180.22 36.3799 168.92 33.3499 163.16 38.5099C168.36 43.6399 172.11 52.9099 179.29 53.9299ZM123.1 52.1299C132.68 64.1399 147.05 67.9399 161.71 66.3099C164.8 65.2599 171.5 64.4199 169.33 59.4299L151.08 37.8699C141.36 38.5599 132.55 44.1599 123.81 49.1399L123.1 52.1299ZM184.5 25.0899C172.74 18.4199 157.32 11.5199 143.64 17.4699C142.32 20.4199 141.41 25.8399 144.98 27.8399C157.81 25.4999 173.38 28.1299 184.5 25.0899ZM135.23 27.9099C135.95 25.5499 134.93 22.4499 132.49 22.3499H132.48C127.52 25.0899 122.42 30.2799 122.69 35.7399L125.08 36.4899C128.84 34.2599 134.92 33.3499 135.23 27.9099ZM127.51 70.5299C124.65 67.9699 120.56 64.1299 115.76 63.2499C113.26 65.5099 114.83 69.2399 115.31 72.3099C119.49 73.1499 124.38 73.4099 127.51 70.5299ZM101.37 49.1499C100.99 45.5099 95.2001 39.7499 92.5401 44.4299C101.54 57.6499 103.13 72.88 106.59 87.6199L108.4 87.6899C109.77 73.2599 102.51 62.5299 101.37 49.1499Z" fill="#221714"/>
<path d="M144.97 27.8398C157.81 25.4998 173.38 28.1398 184.49 25.0898C172.73 18.4198 157.31 11.5098 143.63 17.4698C142.3 20.4198 141.39 25.8398 144.97 27.8398Z" fill="#129043"/>
<path d="M135.24 27.9101C135.96 25.5401 134.93 22.4501 132.5 22.3501C127.54 25.0901 122.44 30.2801 122.71 35.7401L125.1 36.4901C128.85 34.2601 134.93 33.3501 135.25 27.9101H135.24Z" fill="#129043"/>
<path d="M163.16 38.51C168.35 43.64 172.1 52.92 179.29 53.93C184.37 49.92 187.06 44.62 188.6 39.26L187.47 37.38C180.22 36.38 168.93 33.35 163.17 38.51H163.16Z" fill="#129043"/>
<path d="M151.08 37.8701C141.36 38.5601 132.54 44.1601 123.81 49.1401L123.1 52.1301C132.68 64.1401 147.05 67.9501 161.71 66.3101C164.8 65.2501 171.5 64.4201 169.33 59.4301L151.08 37.8701Z" fill="#129043"/>
<path d="M108.41 87.68C109.78 73.25 102.52 62.52 101.38 49.14C101 45.5 95.21 39.74 92.55 44.42C101.55 57.64 103.14 72.86 106.6 87.61L108.41 87.68Z" fill="white"/>
<path d="M189.03 98.6802C172.35 82.0402 143.39 79.8802 121.72 87.8302C117.52 99.1002 136.86 88.0002 136.32 98.9002C130.38 107.65 119 105.21 109.91 104.76C102.6 106.17 94.17 105.12 89.71 98.2102C85.75 92.5602 93.78 89.3602 94.61 85.1502C93.08 80.2202 87.05 79.2902 81.59 79.5902C59.56 83.8702 35.88 95.3702 23.87 117.13C8.53005 154.5 9.52005 204.24 41.25 233.21C58.07 248.04 85.42 246.47 106.19 243.35C122.95 247.27 142.9 248.34 158.34 242.48C189.48 227.18 209.27 196.72 214.67 164.29C216.67 138.34 209.35 115.52 189.03 98.6902V98.6802Z" fill="#C4291E" stroke="#C4291E" stroke-miterlimit="10"/>
<path d="M63.6399 155.68C61.5699 156.72 59.8399 157.41 58.4599 157.41H54.6599C50.8599 157.41 47.7499 156.37 45.3399 153.96C43.2699 151.54 41.8899 148.44 41.8899 144.29C41.8899 140.14 42.9299 137.04 45.3399 134.62C47.7499 132.2 50.5199 131.17 54.6599 131.17C58.7999 131.17 60.5299 131.86 63.2899 133.24V138.42H62.5999C59.8399 136 57.4199 134.97 54.9999 134.97C52.5799 134.97 50.8599 135.66 49.4799 137.39C48.0999 139.12 47.4099 141.19 47.4099 144.3C47.4099 147.41 48.0999 149.48 49.4799 151.21C50.8599 152.94 52.5899 153.63 54.9999 153.63C57.4099 153.63 57.4199 153.63 58.4499 152.94C59.4899 152.94 60.8699 151.56 62.5899 150.18H63.2799V155.36H63.6299V155.71L63.6399 155.68ZM78.4899 157.75C74.6899 157.75 71.5799 156.71 69.5099 154.3C67.4399 151.88 66.0599 148.78 66.0599 144.63C66.0599 140.48 67.0999 137.38 69.5099 134.96C71.5799 132.54 74.6899 131.51 78.4899 131.51C82.2899 131.51 85.3999 132.55 87.4699 134.96C89.5399 137.37 90.9199 140.48 90.9199 144.63C90.9199 148.78 89.8799 151.88 87.4699 154.3C85.3999 156.72 82.2899 157.75 78.4899 157.75ZM78.4899 135.3C76.4199 135.3 75.0399 135.99 73.6599 137.72C72.6199 139.45 71.9299 141.52 71.9299 144.63C71.9299 147.74 72.6199 149.81 73.6599 151.54C74.6999 153.27 76.4199 153.96 78.4899 153.96C80.5599 153.96 81.9399 153.27 83.3199 151.54C84.3599 149.81 85.0499 147.74 85.0499 144.63C85.0499 141.52 84.3599 139.45 83.3199 137.72C82.2799 135.99 80.5599 135.3 78.4899 135.3ZM113.02 157.4H95.4099V131.85H100.93V152.91H113.02V157.05V157.4ZM133.74 157.4H116.13V131.85H121.65V152.91H133.74V157.05V157.4ZM161.02 157.4H155.15L153.08 151.88H143.07L141 157.4H135.48L145.15 131.85H151.37L161.04 157.4H161.02ZM152.04 147.73L148.59 137.37L145.14 147.73H152.39H152.04ZM163.44 157.75V132.2H172.42C176.22 132.2 178.98 132.2 180.36 133.58C181.74 134.62 182.43 136 182.43 137.72C182.43 139.44 181.39 141.86 178.98 142.9C182.78 143.94 184.5 146.01 184.5 149.46C184.5 152.91 183.46 153.6 181.74 155.33C180.01 156.71 177.25 157.4 173.8 157.4H163.44V157.75ZM168.96 136.34V142.56H174.83C175.52 142.56 176.21 141.87 176.56 141.52C176.56 140.83 177.25 140.48 177.25 139.45V137.72C177.25 137.72 176.56 137.03 175.87 136.68H169.31L168.96 136.33V136.34ZM168.96 146.35V153.95H176.56C177.25 153.95 177.6 153.26 177.94 152.57C178.28 151.88 178.63 151.19 178.63 150.5C178.63 149.81 178.63 148.77 177.94 148.43C177.94 147.74 176.9 147.39 176.21 147.39H168.61H168.96V146.35ZM82.6399 205.75H68.8299V201.95H72.9699V183.99H68.8299V180.19H82.6399V183.99H78.4999V201.95H82.6399V205.75ZM109.22 184.68H100.93V205.74H95.4099V184.68H87.1199V180.54H109.22V184.68ZM130.98 205.75H113.37V180.2H130.98V184.34H118.89V189.86H130.28V194H118.89V201.25H130.98V205.39V205.74V205.75ZM160.33 205.75H154.81V187.79L149.29 199.53H145.49L139.97 187.79V205.75H134.79V180.2H141.01L147.57 193.67L154.13 180.2H160.35V205.75H160.33Z" fill="white"/>
</g>
<defs>
<clipPath id="clip0_5120_125">
<rect width="230" height="260" fill="white"/>
</clipPath>
</defs>
</svg>
