<svg width="33" height="32" viewBox="0 0 33 32" fill="none" xmlns="http://www.w3.org/2000/svg">
<g clip-path="url(#clip0_7131_354)">
<path d="M30.1772 0.833984H3.48884C3.04969 0.833984 2.62852 1.00844 2.31799 1.31897C2.00746 1.6295 1.83301 2.05066 1.83301 2.48982V29.1786C1.83312 29.6176 2.00762 30.0387 2.31814 30.3491C2.62865 30.6596 3.04976 30.834 3.48884 30.834H17.8568V19.2165H13.9472V14.689H17.8568V11.3498C17.8568 7.47482 20.2234 5.36523 23.6801 5.36523C25.3359 5.36523 26.7588 5.48815 27.1738 5.54357V9.59315L24.7763 9.5944C22.8963 9.5944 22.5326 10.4877 22.5326 11.7986V14.6894H27.0159L26.4322 19.2169H22.5326V30.834H30.1776C30.6167 30.8339 31.0377 30.6594 31.3482 30.3489C31.6586 30.0383 31.833 29.6172 31.833 29.1782V2.48982C31.833 2.05066 31.6586 1.6295 31.348 1.31897C31.0375 1.00844 30.6163 0.833984 30.1772 0.833984Z" fill="#1B1464"/>
</g>
<defs>
<clipPath id="clip0_7131_354">
<rect width="33" height="32" fill="white"/>
</clipPath>
</defs>
</svg>
