<svg width="1000" height="720" viewBox="0 0 1000 720" fill="none" xmlns="http://www.w3.org/2000/svg">
<g clip-path="url(#clip0_5119_624)">
<path d="M825.73 22.2102C854.15 36.3502 872.73 101.27 871.92 143.6C871.11 153.35 871.47 155.59 878.32 161.55C893.87 175.64 916.24 219.45 882.84 279.27C880.58 283.45 875.12 288.29 880.53 297.63C890.08 314.01 903.76 367 905.24 387.79C906.18 401.09 909.22 399.4 918.17 399.39C927.85 399.37 965.19 401.2 980.46 403.07C999.06 405.37 1011.68 424.15 983.49 425.21C971.16 425.67 930.98 423.66 923.28 424.62C915.56 425.58 906.43 424.27 906.75 435.76C907.02 445.97 903.14 473.99 902.39 480.28C901.67 486.6 905.84 491.18 916.34 492.51C927.49 493.93 958.71 502 965.33 504.42C972.24 506.93 978.94 517.92 967.88 520.69C955.13 523.88 927.77 519.07 909.78 516.69C897.08 515.03 893.02 518.75 890.91 528.53C889.92 533.05 879.4 558.99 874.84 566.6C871.23 572.63 873.61 574.19 879.34 577.75C885.91 581.85 915.22 596.97 929.3 603.74C951.64 614.4 945.78 634.7 923.54 628.09C912.53 624.87 884.02 610.79 870.1 604.79C862.29 601.36 856.14 598.99 850.73 605.45C811.12 652.76 751.68 682.28 710.57 695.2C605.14 728.53 485.05 721.96 394.55 708.53C309.18 697.42 229.53 671.79 177.61 624.99C170.88 618.9 167.69 620.44 159.57 624.38C148.4 629.79 118.72 645.6 102.07 658.49C88.7799 668.77 72.1499 659.16 86.9899 642.43C96.7199 631.45 135.44 608.55 142.04 605.6C148.67 602.64 151.96 599.8 147.45 594.2C139.5 584.34 128 567.6 122.49 556.6C118 547.65 114.8 546.47 105.11 547.92C93.7499 549.57 79.7899 552.37 67.2199 554.39C49.8199 557.22 49.1799 539.07 64.5299 534.47C74.3599 531.5 90.4399 526.25 98.3599 523.64C106.16 521.12 106.85 520.31 104.52 513.65C101.41 504.75 94.4899 476.77 92.1999 464.27C90.3999 454.34 87.3899 457 79.6999 456.5C72.0399 456 26.3799 459.22 18.1499 460.95C-3.15005 465.51 -7.87005 445.91 15.6699 438.96C29.1999 434.93 59.5799 431.8 75.6099 430.8C80.2299 430.52 89.13 430.34 88.8699 423.73C86.6 364.86 102.54 312.69 121.99 275.47C130.06 260.03 132.48 260.64 128.31 247.63C110.5 200.2 107.71 131.54 139.37 73.7302C151.92 52.8702 165.67 34.7702 200.9 39.5502C257.48 47.1902 288.41 60.4602 332.41 81.5102C338.26 84.2902 344.96 85.0702 350.86 83.5702C388.63 74.0202 445.7 70.4502 481.66 70.7202C488.85 70.7802 489.94 71.6702 494.95 62.8302C506.06 43.1802 531.69 12.0302 557.89 3.73023C611.63 -12.6498 648.92 29.0802 663.12 49.0202C667.85 56.1902 670.27 54.8202 680.65 50.0802C719.31 32.1002 797.57 10.1702 825.73 22.2102Z" fill="#221714"/>
<path d="M841.71 125.73C842.44 132.23 844.56 140.81 833.72 138.12C814.4 133.3 773.17 141.31 763.31 144.31C750.9 148.1 749.88 147.03 742.92 140.88C734.87 133.73 722.37 126.61 699.96 120.87C690.74 118.49 693.08 113.16 689 103.25C684.06 91.3701 684.26 85.8201 693.42 81.0201C736.65 59.0501 772.24 47.3901 801.18 48.8001C828.66 50.2901 838.12 97.2401 841.72 125.74L841.71 125.73Z" fill="white"/>
<path d="M154.1 215.36C157.44 223.17 158.29 220.51 163.82 216.38C173.13 209.45 184.18 216.35 183.17 227.06C182.39 235.28 172.68 247.08 164.53 259.98C137.09 303.47 119.58 365.23 118.87 407.88C118.59 424.86 117.23 428.82 129.8 429.49C145.03 430.28 167.45 432.8 172.89 437.63C177.99 442.17 176.23 452.83 168.65 454.2C159.34 455.9 143.31 454.16 134.71 454.2C126.12 454.24 122.16 453.43 122.62 460.54C123 466.5 129.22 493.12 135.14 506.64C137 510.83 138.75 512.93 141.23 512.99C145.32 513.09 154.15 512.76 165.68 511.49C177.64 510.15 183.18 518.82 179.56 523.56C175.65 528.71 165.16 531.36 156.62 533.48C148.27 535.58 147.92 537.61 150.27 542.44C152.76 547.55 161.65 565.68 172.9 576.95C179.09 583.16 180.62 584.85 189.3 581.58C196.4 578.89 210.26 574.14 215.88 573.89C225.47 573.47 229.03 581.7 226.52 586.72C224.05 591.67 218.17 594.84 212.33 597.26C206.46 599.65 199.55 603.04 206.5 608.89C235.76 633.57 290.41 657.63 365.27 672.73C495.92 697.86 626.06 690.9 712.36 661.59C777.17 637.91 812.07 602.61 818.54 591.66C822.57 584.78 812.87 585.01 806.57 579.92C801.18 575.61 799.54 572.01 802.66 566.04C807.15 557.38 818.98 561.39 827.74 562.17C833.84 562.68 839.72 566.19 844.29 556.58C849.3 546.07 867.85 513.36 860.88 510.71C853.46 507.91 843.59 507.24 838.64 501.03C833.49 494.6 837.65 488.51 843.74 487.09C849.86 485.7 854.17 487.39 864.7 485.69C869.49 484.95 870.26 485.52 871.75 480.33C874.92 469.21 877.01 447.74 876.75 435.37C876.58 427.77 871.32 428.54 859.85 430.31C848.45 432.09 836.35 435.69 826.63 432.1C818.04 428.99 817.88 415.8 832.03 411.06C841.3 407.98 860.71 405.49 869.99 402.66C873.63 401.56 877.24 400.61 876.35 390.87C875.19 378.26 868.58 343.67 859.09 324.89C854.42 314.12 849.32 321.16 843.22 326.26C816.14 348.8 788.42 358.9 764.52 355.9C722.61 350.6 701.73 313.42 693.11 299.69C688.48 292.29 689.83 290.06 678.3 289.74C659.72 289.24 625.37 270.43 615.44 251.61C608.38 238.28 605.04 243.79 585.54 250.21C553.39 260.74 524.07 259.47 500.09 245.64C448.42 213.78 460.76 142.32 470.7 115.53C477.09 99.6798 471.58 102.56 457.93 102.48C435.75 102.33 377.71 108.53 354.65 115.4C338.69 120.15 333.68 121.14 315.84 109.76C278.07 86.6898 204.66 59.8998 181.1 74.4498C159.61 87.5998 132.66 155.54 154.07 215.36H154.1Z" fill="white"/>
<path d="M489.73 180.3C494.09 219.22 521.66 237.34 570.41 227.29C582.44 224.82 594.96 220.79 599.16 216.66C603.35 212.52 603.14 205.64 601.26 202.57C598.45 198.02 564.28 189.17 569.08 150.08C572.85 119.35 601.28 110.33 609.74 109.57C631.07 107.62 646.91 122.11 650.3 124.82C653.67 127.55 663.59 122.06 661.96 113.66C657.98 93.1801 639.33 67.7401 629.29 54.7601C622.72 46.2801 600.97 24.3201 570.45 31.0201C524.38 44.8201 486.42 127.26 489.73 180.31V180.3Z" fill="#D5142D"/>
<path d="M629.49 142.131C624.12 145.881 610.87 166.291 608.84 175.001C607.41 181.091 591.11 169.341 592.31 157.061C593.08 149.161 594.43 141.221 604.54 136.011C616.98 129.641 632.37 140.091 629.49 142.121V142.131Z" fill="#D5142D"/>
<path d="M743.32 208.44C739.87 234.69 724.53 250.45 711.06 257.96C673.82 278.79 622.88 246.82 629.44 199.07C632.62 175.7 645.17 157.45 665.47 150.7C715.42 134.07 748.55 176.31 743.32 208.44Z" fill="#D5142D"/>
<path d="M868.41 193.18C883.6 221.65 864.3 262.78 845.26 284.54C811.06 323.58 782.98 334.81 754.16 325.35C735.18 319.13 723.19 302.07 717.95 291.52C715.21 286.03 718.08 284.46 725.28 280.35C730.73 277.23 734.52 273.1 739.83 275.45C754.45 281.92 777.5 280.75 789.45 269.6C799.36 260.32 805.39 240.13 799.02 225.77C792.12 210.31 780.5 203.35 773.67 199.93C767.92 197.02 768.38 191.68 767.61 186.13C766.55 178.01 766.9 175.26 771.06 173.06C777.94 169.45 793.43 166.1 804.27 165.44C815.11 164.77 852.75 163.81 868.43 193.18H868.41Z" fill="#D5142D"/>
<path d="M770.17 256.54C763.09 260.16 750.23 259.74 754.26 253.31C758.49 246.56 764.38 234.64 766.6 228.18C768.36 223 774.61 228.11 777.69 234.57C782.19 244.09 777.4 252.83 770.17 256.54Z" fill="#D5142D"/>
<path d="M269.61 481.61C269.61 497.16 277.57 514.83 298.74 514.83C319.91 514.83 328.27 492.68 328.27 477.93C328.27 463.18 324.01 438.3 299.72 438.3C275.43 438.3 269.61 464.32 269.61 481.61Z" fill="#221714"/>
<path d="M672.29 475.791C672.29 498.911 682.19 514.831 703.38 514.831C720.1 514.831 730.38 496.181 730.38 477.351C730.38 450.521 719.12 438.891 701.24 438.891C679.69 438.891 672.3 462.571 672.3 475.791H672.29Z" fill="#221714"/>
<path d="M459.4 541.241C459.4 565.531 479.79 576.981 508.93 576.981C538.07 576.981 551.68 559.491 551.68 542.791C551.68 527.661 535.54 508.221 505.63 508.221C473.96 508.221 459.4 525.511 459.4 541.231V541.241Z" fill="#221714"/>
<path d="M479.6 543.19C479.6 552.9 491.05 559.9 506.4 559.9C521.75 559.9 530.1 554.46 530.1 544.17C530.1 533.09 518.84 526.69 504.45 526.69C490.06 526.69 479.6 532.7 479.6 543.19Z" fill="#F3D823"/>
</g>
<defs>
<clipPath id="clip0_5119_624">
<rect width="1000" height="719.48" fill="white"/>
</clipPath>
</defs>
</svg>
