<svg width="800" height="647" viewBox="0 0 800 647" fill="none" xmlns="http://www.w3.org/2000/svg">
<g clip-path="url(#clip0_5119_638)">
<path d="M1.15 168.29C23.99 168.33 47.23 168.33 70.28 168.15C71.1 168.34 71.46 167.55 71.64 166.71C71.85 148.88 71.64 131.13 72.06 113.48C72.24 112.87 72.64 112.7 73.24 112.64C78.3 112.49 83.33 112.73 88.41 112.75C88.63 112.94 88.83 113.35 89.04 113.53C89.04 131.94 88.27 149.76 89.07 168.11C110.93 168.2 133.55 168.64 155.81 168.08C155.943 167.94 156.077 167.804 156.21 167.67C156.58 113.47 156.76 59.2903 156.54 4.49031C155.9 4.12031 155.3 4.12031 154.67 3.95031C133.24 4.07031 111.19 3.97031 89.78 4.16031C89.58 4.34031 89.4 4.52031 89.22 4.74031C89.01 22.3503 89.22 40.3303 88.58 57.9703C83.76 58.7103 78.07 58.1203 72.82 58.0603C72.38 57.9103 72.38 57.6903 72.21 57.3103C72.22 40.3103 72.22 22.9403 72.22 5.53031C72.22 4.91031 72.21 3.90031 71.39 3.95031C48.14 3.76031 24.46 3.95031 1.22 4.12031C0.84 4.32031 0.86 4.91031 0.66 5.15031C0.44 58.1103 0.23 111.29 0 164.06C0.47 165.5 -0.71 167.98 1.15 168.29Z" fill="#1B1464"/>
<path d="M181.51 168.219C222.53 168.429 265.22 168.189 306.43 168.029C306.84 167.979 306.64 167.609 306.81 167.369C307.07 150.549 307.1 133.789 306.95 117.209C306.33 116.829 305.71 116.849 305.1 116.669C288.11 116.469 272.36 117.009 255.55 116.549C255.34 116.549 254.93 116.179 254.93 115.989C254.79 111.909 254.64 107.689 255.11 103.829C255.08 103.449 255.29 103.449 255.47 103.229C270.02 102.719 283.99 103.459 298.57 102.969C298.75 102.749 298.94 102.539 299.15 102.129C299.16 91.0295 299.16 79.4995 298.8 68.3695C298.6 68.1795 297.99 68.2295 297.57 68.0395C283.58 67.8695 269.29 68.3695 255.66 68.0395C255.29 67.8595 255.08 67.4595 255.08 67.2595C255.17 63.3995 254.58 59.1795 255.29 55.6995C255.47 55.4995 255.66 55.2795 255.89 55.0895C271.82 54.7295 288 54.9795 304.19 54.6595C304.38 54.4595 304.37 54.0495 304.57 53.8295C304.8 37.4595 304.86 20.8395 304.49 4.48947C304.26 4.11947 303.66 4.11948 303.25 3.94948C263.01 3.87948 222.39 4.06947 181.93 4.23947C181.34 4.23947 181.38 4.84948 181.38 5.23948C181 59.2395 180.61 113.409 180.66 167.669C180.86 167.849 181.07 168.039 181.48 168.219H181.51Z" fill="#1B1464"/>
<path d="M331.92 168.33C372.76 168.34 414.21 168.38 455.68 167.99C455.86 167.75 455.62 167.38 455.83 167.18C456.41 147.91 455.93 128.54 456.07 109.31C455.85 108.94 455.43 108.94 455.06 108.94C436.83 108.76 418.87 109.17 400.87 108.56C399.61 107.78 399.76 105.75 399.9 104.35C399.58 71.0103 400.27 38.0204 399.94 4.69035C399.94 4.47035 399.73 4.29035 399.35 4.10035C377.31 4.05035 353.83 4.00035 331.2 4.41035C330.6 4.62035 331.01 4.96035 330.83 5.38035C330.86 59.7904 330.07 113.2 330.68 167.77C330.91 168.18 331.54 168.13 331.92 168.31V168.33Z" fill="#1B1464"/>
<path d="M480.56 168.11C521.98 167.94 563.41 167.94 604.87 167.74C605.27 167.74 605.04 167.15 605.24 166.95C605.23 147.91 605.55 128.48 605.11 109.49C604.88 109.11 604.29 109.31 603.9 109.16C586.7 108.93 569.31 109.1 552.11 108.87C551.3 109.11 550.67 108.52 550.28 108.15C549.7 74.0099 550.78 38.9699 550 4.41991C549.77 4.22991 549.38 4.24991 548.94 4.04991C526.49 4.21991 503.46 3.37991 480.82 4.31991C480.42 4.54991 480.46 5.37991 480.49 5.76991C480.32 59.9599 479.68 113.34 479.91 167.55C480.13 167.73 480.35 167.93 480.56 168.1V168.11Z" fill="#1B1464"/>
<path d="M796.87 64.5399C789.77 33.4699 759.95 6.7799 728.8 1.5799C694.64 -4.5501 661.08 7.2999 640.55 34.2799C621.95 58.5899 616.73 94.9599 630.24 123.42C637.74 141.74 655.11 159.16 673.59 167.24C702.56 181.2 743.26 175.94 767.62 155.52C794.36 132.77 806.12 99.2199 796.86 64.5299L796.87 64.5399ZM720.2 105.38C714.43 108.4 706.32 107.86 700.81 105.02C695.05 102.59 691.44 97.0499 689.81 91.4499C687.9 82.4099 690.62 73.2299 698.14 67.9199C703.61 63.4699 712.73 62.9799 719.28 65.5699C726.87 68.7699 732.37 76.2399 732.43 84.5199C732.53 93.0099 727.97 101.48 720.2 105.38Z" fill="#1B1464"/>
<path d="M3.09008 381.67C16.8201 381.5 30.4301 381.72 44.1801 381.72C44.3601 381.51 44.3101 381.32 44.5301 381.32C50.7301 381.56 57.1801 381.77 63.5401 381.04C64.5301 367.4 63.5901 353.7 64.1901 340.09C64.8801 338.88 65.7301 340.77 66.5501 341.3C76.7801 354.3 86.6101 367.56 96.8301 380.55C97.2401 380.71 97.4601 381.09 97.8001 381.06C124.41 381.14 151.35 381.21 178.24 380.68C178.43 380.49 178.43 380.1 178.21 380.1C157.99 354.28 137.54 328.46 117.33 302.81C117.65 302.05 118 301.2 118.56 300.43C138.29 275.49 158 249.77 177.39 224.3C177.33 223.69 176.77 223.95 176.34 223.77C151.52 223.57 126.17 224.2 101.34 224.03C100.57 224.3 100.43 224.86 99.8701 225.07C88.4001 238.69 76.3201 252.38 64.5301 265.78C63.7101 265.88 64.2501 265.03 63.8501 264.68C63.5401 251.13 63.7201 237.93 63.5901 224.37C63.3701 224.18 62.8001 224.2 62.3901 224.08C41.6501 224.24 21.1001 224.2 0.370081 224.37C0.180081 224.58 0.230081 224.94 0.0100812 225.17C8.1175e-05 276.53 0.230081 327.13 0.370081 378.31C0.420081 379.29 0.470081 380.27 0.700081 381.2C1.32008 381.55 2.26008 381.49 3.10008 381.65L3.09008 381.67Z" fill="#1B1464"/>
<path d="M199.18 380.9C220.13 380.71 241.05 380.71 262.01 380.52C262.72 380.29 262.92 379.48 262.86 378.92C262.92 327.37 262.98 275.78 262.65 224.23C262.64 223.68 262.05 223.68 261.84 223.51C240.7 223.72 219.55 223.34 198.42 223.91C198.29 224.12 198.3 224.33 198.1 224.5C198.29 276.66 197.45 328.49 198.38 380.36C198.64 380.75 199.02 380.72 199.18 380.91V380.9Z" fill="#1B1464"/>
<path d="M287.47 276.94C297.56 276.99 307.7 277.4 317.72 277.22C318.28 277.17 318.73 277.94 318.73 278.32C319.08 312.01 318.64 346.37 319.18 380.06C319.36 380.45 319.76 380.03 319.95 380.4C342.83 380.3 366.29 380.18 389.33 380.06C389.54 379.86 389.73 379.66 389.88 379.48C389.75 345.52 389.6 311.25 389.88 277.71C390.24 277.47 390.43 277.07 390.57 277.07C402.02 276.61 413.13 277.35 424.3 276.36C424.48 276.36 424.48 276.15 424.68 275.97C424.68 258.69 424.68 240.89 424.47 223.62C424.27 223.23 423.87 223.27 423.48 223.1C377.93 223.27 332.57 223.27 287.43 223.46C287.01 223.46 287.05 224.05 286.85 224.26C286.85 241.93 286.25 258.98 287.04 276.55C287.07 276.78 287.25 276.78 287.45 276.94H287.47Z" fill="#1B1464"/>
<path d="M543.48 380.69C546.59 380.9 549.66 381.03 552.38 380.69C552.73 380.07 552.73 379.18 552.87 378.6C553 345.59 552.68 312.29 552.81 279.32C552.77 278.38 553.49 277.35 554.64 277.47C565.31 277.47 576.02 277.85 586.61 277.25C587.2 277.04 586.76 276.48 586.97 276.26C586.76 258.82 587.16 241.58 586.78 224.15C586.77 223.91 586.57 223.8 586.19 223.8C558.45 223.57 530.32 223.57 501.85 223.8C501.44 223.63 501.4 223.05 500.84 222.88C484.73 222.6 467.5 223.38 451.03 223.1C450.06 222.77 449.92 223.97 449.95 224.73C449.91 241.77 449.71 259.04 450.1 276.1C450.29 276.44 450.7 276.44 450.86 276.66C461.01 276.88 471.23 276.44 481.34 276.7C481.51 276.7 481.71 276.87 481.94 276.87C482.63 310.95 481.82 346.62 482.75 380.69C491.7 381.17 500.57 380 509.53 380.69C510.29 380.65 510.31 380.75 510.94 380.69C520.41 380.75 530.31 381.03 539.81 380.69H543.49H543.48Z" fill="#1B1464"/>
<path d="M605.29 225.81C625.47 257.82 647.2 289.01 667.71 320.67C668.8 340.32 668.31 359.38 668.22 378.95C668.66 379.33 668.5 380.12 669.3 380.28C691.57 380.02 713.67 380.33 735.93 379.68C736.8 374.22 735.85 368.03 736.33 362.19C736.19 349.04 736.41 335.45 736.43 322.06C736.55 321.07 737.12 320.48 737.46 319.5C758.55 287.33 779.69 255.9 800 223.56C799.54 222.81 798.01 223.09 797.05 222.97C772.24 223.19 748.39 222.93 723.76 223.32C716.62 234.19 710.25 245.39 702.9 256.29C701.54 255.56 700.85 253.65 700.02 252.38C694.79 242.78 689.83 233.15 684.46 223.55C684.05 223.39 683.45 223.44 682.88 223.26C656.72 223.55 631.13 223.45 605.18 223.86C603.6 223.79 604.87 225.47 605.28 225.81H605.29Z" fill="#1B1464"/>
<path d="M718.1 603.76C721.22 604.65 724.06 606 726.64 607.81C729.21 609.61 731.31 611.89 732.96 614.65C734.6 617.4 735.42 620.67 735.42 624.43C735.42 628.19 734.59 631.47 732.96 634.21C731.32 636.98 729.21 639.26 726.64 641.07C724.06 642.86 721.22 644.17 718.1 645C714.99 645.81 711.93 646.23 708.91 646.23C705.89 646.23 702.85 645.81 699.72 645C696.6 644.18 693.76 642.86 691.18 641.07C688.6 639.27 686.51 636.98 684.86 634.21C683.22 631.47 682.4 628.2 682.4 624.43C682.4 620.66 683.22 617.41 684.86 614.65C686.5 611.89 688.6 609.61 691.18 607.81C693.76 606 696.59 604.65 699.72 603.76C702.84 602.85 705.89 602.41 708.91 602.41C711.93 602.41 714.99 602.86 718.1 603.76ZM702.68 610.9C700.6 611.56 698.73 612.51 697.06 613.72C695.39 614.96 694.05 616.48 693.01 618.27C691.96 620.08 691.44 622.13 691.44 624.42C691.44 626.71 691.97 628.76 693.01 630.56C694.05 632.36 695.39 633.89 697.06 635.11C698.73 636.34 700.6 637.29 702.68 637.93C704.75 638.59 706.84 638.92 708.91 638.92C710.98 638.92 713.07 638.59 715.15 637.93C717.22 637.28 719.09 636.33 720.76 635.11C722.43 633.88 723.79 632.36 724.83 630.56C725.87 628.76 726.39 626.71 726.39 624.42C726.39 622.13 725.88 620.08 724.83 618.27C723.79 616.48 722.43 614.96 720.76 613.72C719.09 612.5 717.22 611.55 715.15 610.9C713.07 610.26 710.99 609.92 708.91 609.92C706.83 609.92 704.75 610.26 702.68 610.9Z" fill="#1B1464"/>
<path d="M152.73 602.93V633.1C152.73 635.72 151.98 637.5 150.48 638.46C148.98 639.4 146.61 639.88 143.32 639.88C142.85 639.88 142.31 639.86 141.76 639.79C141.73 639.79 141.69 639.79 141.66 639.79C141.17 639.73 140.64 639.65 140.09 639.53H140.05C140.05 639.53 139.96 639.5 139.91 639.49C139.47 639.39 139.01 639.26 138.53 639.11C138.31 639.03 138.1 638.95 137.9 638.87C135.92 638.14 133.73 636.87 131.46 634.78L128.6 641.36C133.63 644.8 138.4 645.89 141.88 646.13C142.45 646.16 143.03 646.19 143.64 646.19C146.36 646.19 148.84 645.98 151.08 645.54C153.32 645.1 155.25 644.37 156.89 643.32C158.54 642.3 159.8 640.97 160.7 639.4C161.6 637.82 162.06 635.97 162.06 633.84V602.93H152.71H152.73Z" fill="#1B1464"/>
<path d="M284.34 614.94C277.4 610.66 271.75 609.79 269.88 609.62L268.51 609.52C267.99 609.5 267.46 609.47 266.94 609.47C265.74 609.47 264.5 609.57 263.22 609.76C261.94 609.96 260.79 610.25 259.76 610.62C258.72 611 257.86 611.51 257.19 612.13C256.51 612.75 256.17 613.54 256.17 614.47C256.17 615.78 256.64 616.76 257.59 617.41C258.54 618.07 259.79 618.56 261.35 618.88C262.89 619.21 264.66 619.43 266.64 619.53C268.63 619.64 270.66 619.78 272.72 619.94C274.79 620.12 276.81 620.4 278.8 620.81C280.78 621.22 282.54 621.87 284.1 622.76C285.66 623.67 286.91 624.88 287.86 626.41C288.81 627.94 289.29 629.93 289.29 632.37C289.29 635.2 288.54 637.52 287.05 639.32C285.55 641.12 283.68 642.54 281.46 643.57C279.22 644.61 276.82 645.3 274.22 645.65C271.64 646.01 269.23 646.19 267 646.19C266.35 646.19 265.74 646.19 265.15 646.16C261.95 646.02 255.67 645.23 247.06 640.78L250.12 634.04C252.13 635.23 254.03 636.16 255.8 636.88C256.5 637.19 257.25 637.5 258.06 637.77C259.5 638.26 261.01 638.65 262.58 638.96C262.81 639 263.03 639.01 263.26 639.06C263.7 639.13 264.13 639.2 264.5 639.25C264.69 639.26 264.88 639.28 265.07 639.31C266.19 639.43 266.82 639.4 266.82 639.4C267.75 639.4 268.93 639.34 270.41 639.2C271.87 639.07 273.32 638.78 274.73 638.34C276.15 637.9 277.37 637.3 278.4 636.54C279.43 635.78 279.95 634.77 279.95 633.53C279.95 632.29 279.47 631.34 278.52 630.74C277.57 630.13 276.31 629.71 274.76 629.43C273.21 629.16 271.45 628.98 269.46 628.91C267.48 628.82 265.45 628.7 263.38 628.53C261.31 628.38 259.28 628.1 257.3 627.72C255.3 627.33 253.54 626.7 251.99 625.8C250.44 624.89 249.19 623.67 248.24 622.11C247.28 620.56 246.8 618.53 246.8 616.03C246.8 614.34 247.2 612.67 247.99 611.04C248.78 609.41 249.99 607.95 251.63 606.71C253.26 605.45 255.33 604.43 257.84 603.64C260.34 602.85 263.28 602.45 266.66 602.45C266.84 602.45 266.99 602.47 267.18 602.47C270.02 602.49 276.16 602.7 287.93 608.42L284.33 614.95" fill="#1B1464"/>
<path d="M377.15 602.93H367.81V645.96H377.15V602.93Z" fill="#1B1464"/>
<path d="M430.52 637.67C426.98 638.76 424.28 638.95 422.95 638.95H422.56C420.27 638.95 417.97 638.62 415.88 637.95C413.78 637.3 411.95 636.34 410.4 635.09C408.84 633.84 407.6 632.3 406.68 630.47C405.75 628.65 405.29 626.56 405.29 624.21C405.29 621.86 405.76 619.78 406.68 617.95C407.6 616.11 408.84 614.58 410.4 613.33C411.95 612.08 413.78 611.12 415.88 610.46C417.97 609.81 420.16 609.48 422.45 609.48C422.45 609.48 422.9 609.48 423.7 609.55C424.71 609.62 425.77 609.73 426.91 609.97C427.31 610.06 427.67 610.18 428.07 610.29C428.77 610.45 429.51 610.64 430.31 610.89C430.69 611.01 431.11 611.07 431.49 611.2C432.28 611.47 432.97 611.76 433.62 612.06C435.27 612.74 437.03 613.63 438.8 614.7L443.42 607.51C436.15 603.78 428.37 602.8 424.81 602.55C424.03 602.52 423.27 602.46 422.44 602.46C419.02 602.46 415.72 602.92 412.57 603.85C409.41 604.78 406.61 606.17 404.18 608.02C401.74 609.87 399.81 612.17 398.39 614.93C396.97 617.69 396.27 620.86 396.27 624.45C396.27 628.04 396.97 631.3 398.39 634.02C399.81 636.74 401.74 639.01 404.18 640.84C406.6 642.67 409.4 644.02 412.57 644.89C415.72 645.76 419.02 646.19 422.44 646.19C425.06 646.19 427.58 645.89 429.96 645.29C432.36 644.69 434.5 643.99 436.38 643.17C437.29 642.77 438.12 642.41 438.87 642.05C440.67 641.14 442.54 640.01 444.47 638.68L440.69 632.63C438.87 633.88 437.1 634.89 435.44 635.7C434.75 636.07 433.99 636.44 433.15 636.77C432.32 637.1 431.44 637.4 430.5 637.67" fill="#1B1464"/>
<path d="M39.68 602.93L27.78 619.86C27.78 619.86 26.49 621.84 25.11 621.84C24.2 621.84 23.35 621.01 22.86 620.41L10.74 602.93H0V645.96H8.31V613.46H8.47L24.61 637.35H24.86L41.26 613.51L41.42 613.54V645.96H50.45V602.93H39.68Z" fill="#1B1464"/>
<path d="M94.4301 602.93H87.8901L67.3501 645.96H75.1001L80.4901 635.34H100.43L105.88 645.96H116.4L94.4301 602.93ZM82.9301 629.27L88.6501 617.96C88.9201 617.43 89.7301 616.08 90.5401 616.08C91.5101 616.08 92.3801 618.01 92.4501 618.15L97.4701 629.27H82.9301Z" fill="#1B1464"/>
<path d="M199.49 638.449C199.09 638.449 197.79 638.349 196.8 637.359C195.81 636.369 195.72 635.059 195.71 634.659V627.109H218.82V620.089H195.71V609.959H224.96V602.939H186.37V645.969H225.45V638.459H199.49V638.449Z" fill="#1B1464"/>
<path d="M516.07 638.429C515.67 638.429 514.37 638.329 513.38 637.339C512.39 636.349 512.29 635.049 512.29 634.659V602.859H502.96V645.949H543.82V638.419H516.07V638.429Z" fill="#1B1464"/>
<path d="M643.22 624.51V630.24H653.89C654.29 630.25 655.59 630.34 656.58 631.31C657.57 632.31 657.66 633.61 657.66 634.01V637.29C655.91 637.89 653.78 638.45 651.29 638.96C648.8 639.48 645.99 639.74 642.86 639.74C640.82 639.74 638.83 639.46 636.82 638.88C634.82 638.31 633.04 637.42 631.47 636.22C629.91 635.02 628.65 633.44 627.69 631.51C626.73 629.57 626.26 627.27 626.26 624.6C626.26 621.93 626.74 619.55 627.69 617.64C628.65 615.72 629.91 614.17 631.47 612.96C633.03 611.76 634.81 610.88 636.82 610.3C638.83 609.72 640.82 609.44 642.86 609.44C644.5 609.44 646.25 609.55 648.09 609.77C649.68 609.95 651.12 610.26 652.5 610.63L652.47 610.61C652.56 610.64 652.67 610.67 652.77 610.7C652.9 610.73 653.05 610.76 653.18 610.8C653.23 610.8 653.26 610.83 653.32 610.84C655.72 611.5 658.36 612.47 661.07 613.87L664.25 606.78L659.23 604.95C658.21 604.65 657.02 604.34 655.61 603.99C653.91 603.59 651.96 603.21 649.77 602.87C647.57 602.55 645.27 602.39 642.87 602.39C639.03 602.39 635.54 602.89 632.39 603.9C629.25 604.91 626.54 606.38 624.3 608.29C622.05 610.2 620.31 612.51 619.07 615.21C617.85 617.91 617.23 620.98 617.23 624.41C617.23 627.84 617.85 630.92 619.07 633.63C620.31 636.33 622.05 638.62 624.3 640.51C626.54 642.4 629.23 643.82 632.39 644.76C635.53 645.72 639.03 646.2 642.86 646.2C644.83 646.2 646.84 646.14 648.9 646.03C650.95 645.92 653 645.64 655.05 645.17C657.11 644.71 659.13 644.06 661.14 643.25C662.54 642.68 663.89 641.99 665.2 641.19V624.5H643.21L643.22 624.51Z" fill="#1B1464"/>
<path d="M575.21 638.429H575.07C575.15 638.429 575.21 638.429 575.21 638.429ZM571.3 638.449V638.429H575.07C574.67 638.429 573.38 638.329 572.39 637.339C571.4 636.349 571.31 635.049 571.3 634.659V627.109H594.4V620.089H571.3V609.959H600.55V602.939H561.97V645.969H601.04V638.459H571.3V638.449Z" fill="#1B1464"/>
<path d="M304.84 602.93V610.42H318.16C318.56 610.43 319.85 610.53 320.84 611.51C321.84 612.5 321.92 613.81 321.93 614.2V645.96H331.27V610.43H348.35V602.94H304.85L304.84 602.93Z" fill="#1B1464"/>
<path d="M791.28 602.87V625.67C791.28 625.67 791.11 628.47 790.22 628.78C789.11 629.17 787.76 628.2 787.72 628.17L763.31 602.87H754.28V645.96H763.01V615.81L791.96 645.96H800V602.87H791.28Z" fill="#1B1464"/>
<path d="M433.21 518.01L425.94 525.28L400 499.34L374.06 525.28L366.79 518.01L392.73 492.07L366.79 466.13L374.06 458.86L400 484.8L425.94 458.86L433.21 466.13L407.27 492.07L433.21 518.01Z" fill="#1B1464"/>
</g>
<defs>
<clipPath id="clip0_5119_638">
<rect width="800" height="646.21" fill="white"/>
</clipPath>
</defs>
</svg>
