<svg width="33" height="32" viewBox="0 0 33 32" fill="none" xmlns="http://www.w3.org/2000/svg">
<path fill-rule="evenodd" clip-rule="evenodd" d="M32.5 0V31.5899H0V0H32.5ZM17.0544 30.6132L17.0381 30.6159L16.942 30.6619L16.9149 30.6672L16.8959 30.6619L16.7998 30.6146C16.7862 30.6106 16.7741 30.6146 16.7673 30.6225L16.7619 30.6356L16.7389 31.199L16.7456 31.2253L16.7592 31.2424L16.9 31.3398L16.9203 31.3451L16.9366 31.3398L17.0774 31.2424L17.0936 31.2213L17.0991 31.199L17.076 30.6369C17.0733 30.6238 17.0639 30.6146 17.0544 30.6132ZM17.4119 30.4645L17.3929 30.4671L17.1437 30.5895L17.1302 30.6027L17.1261 30.6172L17.1505 31.1832L17.1573 31.199L17.1681 31.2095L17.4403 31.3306C17.4566 31.3359 17.4715 31.3306 17.4796 31.3201L17.485 31.3016L17.439 30.4935C17.4349 30.4777 17.4254 30.4671 17.4119 30.4645ZM16.4436 30.4671C16.4375 30.4644 16.4306 30.4637 16.424 30.4651C16.4174 30.4666 16.4115 30.47 16.4071 30.475L16.399 30.4935L16.3529 31.3016C16.3529 31.3174 16.3624 31.328 16.3759 31.3332L16.3962 31.3306L16.6684 31.2082L16.682 31.1977L16.686 31.1832L16.7104 30.6172L16.7064 30.6014L16.6928 30.5882L16.4436 30.4671Z" fill="#1B1464"/>
<path fill-rule="evenodd" clip-rule="evenodd" d="M26.7489 6.13189C26.866 6.00174 26.9555 5.85043 27.0125 5.68663C27.0694 5.52282 27.0926 5.34971 27.0807 5.17719C27.0689 5.00467 27.0221 4.83612 26.9432 4.68115C26.8643 4.52618 26.7548 4.38784 26.6209 4.27401C26.487 4.16019 26.3313 4.07312 26.1628 4.01777C25.9943 3.96242 25.8162 3.93988 25.6387 3.95143C25.4612 3.96298 25.2878 4.00839 25.1283 4.08509C24.9689 4.16178 24.8266 4.26824 24.7095 4.3984L17.7897 12.0853L11.9167 4.47474C11.7905 4.31127 11.627 4.17859 11.4389 4.0872C11.2509 3.99582 11.0436 3.94824 10.8333 3.94824H5.41667C5.16518 3.94824 4.91867 4.01631 4.70474 4.14482C4.49081 4.27333 4.31793 4.45721 4.20546 4.67584C4.093 4.89448 4.04539 5.13924 4.06797 5.38269C4.09056 5.62615 4.18244 5.85868 4.33333 6.05424L13.0501 17.3503L5.75115 25.4583C5.63404 25.5885 5.54446 25.7398 5.48752 25.9036C5.43058 26.0674 5.40738 26.2405 5.41927 26.413C5.43115 26.5856 5.47787 26.7541 5.55678 26.9091C5.63568 27.064 5.74521 27.2024 5.87912 27.3162C6.01302 27.43 6.16868 27.5171 6.33721 27.5725C6.50574 27.6278 6.68383 27.6503 6.86132 27.6388C7.03881 27.6272 7.21222 27.5818 7.37166 27.5051C7.53109 27.4284 7.67342 27.322 7.79052 27.1918L14.7103 19.5036L20.5833 27.1142C20.7095 27.2776 20.873 27.4103 21.0611 27.5017C21.2491 27.5931 21.4564 27.6407 21.6667 27.6407H27.0833C27.3348 27.6407 27.5813 27.5726 27.7953 27.4441C28.0092 27.3156 28.1821 27.1317 28.2945 26.9131C28.407 26.6944 28.4546 26.4497 28.432 26.2062C28.4094 25.9628 28.3176 25.7302 28.1667 25.5347L19.4499 14.2387L26.7489 6.13189ZM22.3438 25.0082L8.125 6.58073H10.1563L24.375 25.0082H22.3438Z" fill="white"/>
</svg>
